<?xml version="1.0" standalone="no"?>
<svg xmlns="http://www.w3.org/2000/svg" width="1120" height="557.353515625"><g transform="translate(70,20)"><g class="x axis" transform="translate(0,400)" fill="none" font-size="10" font-family="sans-serif" text-anchor="middle"><path class="domain" stroke="#000" d="M0.5,6V0.5H1000.5V6"/><g class="tick" opacity="1" transform="translate(177.41935483870972,0)"><line stroke="#000" y2="6"/><text fill="#000" y="9" dy="-0.5em" dx="-.8em" style="text-anchor: end;" transform="rotate(-90)">mixed (n=7)</text></g><g class="tick" opacity="1" transform="translate(500,0)"><line stroke="#000" y2="6"/><text fill="#000" y="9" dy="-0.5em" dx="-.8em" style="text-anchor: end;" transform="rotate(-90)">orchardgass (n=7)</text></g><g class="tick" opacity="1" transform="translate(822.5806451612904,0)"><line stroke="#000" y2="6"/><text fill="#000" y="9" dy="-0.5em" dx="-.8em" style="text-anchor: end;" transform="rotate(-90)">whiteclover (n=7)</text></g></g><g class="y axis" fill="none" font-size="10" font-family="sans-serif" text-anchor="end"><path class="domain" stroke="#000" d="M-6,400.5H0.5V0.5H-6"/><g class="tick" opacity="1" transform="translate(0,400.5)"><line stroke="#000" x2="-6"/><text fill="#000" x="-9" dy="0.32em">0.87</text></g><g class="tick" opacity="1" transform="translate(0,350.49999999999994)"><line stroke="#000" x2="-6"/><text fill="#000" x="-9" dy="0.32em">0.88</text></g><g class="tick" opacity="1" transform="translate(0,300.4999999999999)"><line stroke="#000" x2="-6"/><text fill="#000" x="-9" dy="0.32em">0.89</text></g><g class="tick" opacity="1" transform="translate(0,250.4999999999998)"><line stroke="#000" x2="-6"/><text fill="#000" x="-9" dy="0.32em">0.90</text></g><g class="tick" opacity="1" transform="translate(0,200.49999999999974)"><line stroke="#000" x2="-6"/><text fill="#000" x="-9" dy="0.32em">0.91</text></g><g class="tick" opacity="1" transform="translate(0,150.49999999999966)"><line stroke="#000" x2="-6"/><text fill="#000" x="-9" dy="0.32em">0.92</text></g><g class="tick" opacity="1" transform="translate(0,100.4999999999996)"><line stroke="#000" x2="-6"/><text fill="#000" x="-9" dy="0.32em">0.93</text></g><g class="tick" opacity="1" transform="translate(0,50.500000000000114)"><line stroke="#000" x2="-6"/><text fill="#000" x="-9" dy="0.32em">0.94</text></g><g class="tick" opacity="1" transform="translate(0,0.5)"><line stroke="#000" x2="-6"/><text fill="#000" x="-9" dy="0.32em">0.95</text></g></g><text class="x label" text-anchor="middle" transform="translate(500,527.353515625)" style="font: 12px sans-serif;">group</text><text class="y label" text-anchor="middle" transform="translate(-50,200)rotate(-90)" style="font: 12px sans-serif;">pielou_evenness</text><line class="center" x1="177.41935483870972" y1="92.99640650000003" x2="177.41935483870972" y2="33.81700799999999" stroke-dasharray="2,2" stroke-width="1" stroke="black"/><line class="center" x1="500" y1="395.2835849999999" x2="500" y2="22.05645349999952" stroke-dasharray="2,2" stroke-width="1" stroke="black"/><line class="center" x1="822.5806451612904" y1="152.43871849999988" x2="822.5806451612904" y2="88.52946499999962" stroke-dasharray="2,2" stroke-width="1" stroke="black"/><g class="outlier" transform="translate(177.41935483870972,0)"/><g class="outlier" transform="translate(500,0)"/><g class="outlier" transform="translate(822.5806451612904,0)"><circle r="4" stroke-width="1" stroke="black" stroke-opacity="0.3" fill="black" fill-opacity="0.33" cx="0" cy="221.68648450000006"/></g><rect class="box" x="32.25806451612908" y="45.16445749999991" width="290.3225806451613" height="42.29463975000016" fill="white" stroke-width="1" stroke="black"/><rect class="box" x="354.8387096774194" y="53.357401249999896" width="290.3225806451613" height="219.31307725000028" fill="white" stroke-width="1" stroke="black"/><rect class="box" x="677.4193548387098" y="118.34541799999994" width="290.3225806451613" height="32.720088750000116" fill="white" stroke-width="1" stroke="black"/><line class="median" x1="32.25806451612908" y1="59.0504375000001" x2="322.58064516129036" y2="59.0504375000001" stroke-width="1" stroke="black"/><line class="median" x1="354.8387096774194" y1="111.91838649999954" x2="645.1612903225807" y2="111.91838649999954" stroke-width="1" stroke="black"/><line class="median" x1="677.4193548387098" y1="138.3781315" x2="967.741935483871" y2="138.3781315" stroke-width="1" stroke="black"/><g class="whisker" transform="translate(104.8387096774194,0)"><line class="median" x1="0" y1="92.99640650000003" x2="145.16129032258064" y2="92.99640650000003" stroke-width="1" stroke="black"/><line class="median" x1="0" y1="33.81700799999999" x2="145.16129032258064" y2="33.81700799999999" stroke-width="1" stroke="black"/></g><g class="whisker" transform="translate(427.4193548387097,0)"><line class="median" x1="0" y1="395.2835849999999" x2="145.16129032258064" y2="395.2835849999999" stroke-width="1" stroke="black"/><line class="median" x1="0" y1="22.05645349999952" x2="145.16129032258064" y2="22.05645349999952" stroke-width="1" stroke="black"/></g><g class="whisker" transform="translate(750.0000000000001,0)"><line class="median" x1="0" y1="152.43871849999988" x2="145.16129032258064" y2="152.43871849999988" stroke-width="1" stroke="black"/><line class="median" x1="0" y1="88.52946499999962" x2="145.16129032258064" y2="88.52946499999962" stroke-width="1" stroke="black"/></g></g></svg>