<?xml version="1.0" standalone="no"?>
<svg xmlns="http://www.w3.org/2000/svg" width="1120" height="557.353515625"><g transform="translate(70,20)"><g class="x axis" transform="translate(0,400)" fill="none" font-size="10" font-family="sans-serif" text-anchor="middle"><path class="domain" stroke="#000" d="M0.5,6V0.5H1000.5V6"/><g class="tick" opacity="1" transform="translate(177.41935483870972,0)"><line stroke="#000" y2="6"/><text fill="#000" y="9" dy="-0.5em" dx="-.8em" style="text-anchor: end;" transform="rotate(-90)">mixed (n=7)</text></g><g class="tick" opacity="1" transform="translate(500,0)"><line stroke="#000" y2="6"/><text fill="#000" y="9" dy="-0.5em" dx="-.8em" style="text-anchor: end;" transform="rotate(-90)">orchardgass (n=7)</text></g><g class="tick" opacity="1" transform="translate(822.5806451612904,0)"><line stroke="#000" y2="6"/><text fill="#000" y="9" dy="-0.5em" dx="-.8em" style="text-anchor: end;" transform="rotate(-90)">whiteclover (n=7)</text></g></g><g class="y axis" fill="none" font-size="10" font-family="sans-serif" text-anchor="end"><path class="domain" stroke="#000" d="M-6,400.5H0.5V0.5H-6"/><g class="tick" opacity="1" transform="translate(0,400.5)"><line stroke="#000" x2="-6"/><text fill="#000" x="-9" dy="0.32em">42</text></g><g class="tick" opacity="1" transform="translate(0,360.5)"><line stroke="#000" x2="-6"/><text fill="#000" x="-9" dy="0.32em">44</text></g><g class="tick" opacity="1" transform="translate(0,320.5)"><line stroke="#000" x2="-6"/><text fill="#000" x="-9" dy="0.32em">46</text></g><g class="tick" opacity="1" transform="translate(0,280.5)"><line stroke="#000" x2="-6"/><text fill="#000" x="-9" dy="0.32em">48</text></g><g class="tick" opacity="1" transform="translate(0,240.5)"><line stroke="#000" x2="-6"/><text fill="#000" x="-9" dy="0.32em">50</text></g><g class="tick" opacity="1" transform="translate(0,200.5)"><line stroke="#000" x2="-6"/><text fill="#000" x="-9" dy="0.32em">52</text></g><g class="tick" opacity="1" transform="translate(0,160.5)"><line stroke="#000" x2="-6"/><text fill="#000" x="-9" dy="0.32em">54</text></g><g class="tick" opacity="1" transform="translate(0,120.5)"><line stroke="#000" x2="-6"/><text fill="#000" x="-9" dy="0.32em">56</text></g><g class="tick" opacity="1" transform="translate(0,80.5)"><line stroke="#000" x2="-6"/><text fill="#000" x="-9" dy="0.32em">58</text></g><g class="tick" opacity="1" transform="translate(0,40.5)"><line stroke="#000" x2="-6"/><text fill="#000" x="-9" dy="0.32em">60</text></g><g class="tick" opacity="1" transform="translate(0,0.5)"><line stroke="#000" x2="-6"/><text fill="#000" x="-9" dy="0.32em">62</text></g></g><text class="x label" text-anchor="middle" transform="translate(500,527.353515625)" style="font: 12px sans-serif;">group</text><text class="y label" text-anchor="middle" transform="translate(-50,200)rotate(-90)" style="font: 12px sans-serif;">faith_pd</text><line class="center" x1="177.41935483870972" y1="206.37902712400006" x2="177.41935483870972" y2="11.218527973999926" stroke-dasharray="2,2" stroke-width="1" stroke="black"/><line class="center" x1="500" y1="361.507664424" x2="500" y2="12.611323051999932" stroke-dasharray="2,2" stroke-width="1" stroke="black"/><line class="center" x1="822.5806451612904" y1="270.11924928400003" x2="822.5806451612904" y2="111.42589165599998" stroke-dasharray="2,2" stroke-width="1" stroke="black"/><g class="outlier" transform="translate(177.41935483870972,0)"/><g class="outlier" transform="translate(500,0)"/><g class="outlier" transform="translate(822.5806451612904,0)"/><rect class="box" x="32.25806451612908" y="69.95454473300003" width="290.3225806451613" height="70.21768889400005" fill="white" stroke-width="1" stroke="black"/><rect class="box" x="354.8387096774194" y="18.610293657000057" width="290.3225806451613" height="262.035458446" fill="white" stroke-width="1" stroke="black"/><rect class="box" x="677.4193548387098" y="193.123320686" width="290.3225806451613" height="56.954957867000076" fill="white" stroke-width="1" stroke="black"/><line class="median" x1="32.25806451612908" y1="119.99226285999998" x2="322.58064516129036" y2="119.99226285999998" stroke-width="1" stroke="black"/><line class="median" x1="354.8387096774194" y1="175.88212558799995" x2="645.1612903225807" y2="175.88212558799995" stroke-width="1" stroke="black"/><line class="median" x1="677.4193548387098" y1="234.089307646" x2="967.741935483871" y2="234.089307646" stroke-width="1" stroke="black"/><g class="whisker" transform="translate(104.8387096774194,0)"><line class="median" x1="0" y1="206.37902712400006" x2="145.16129032258064" y2="206.37902712400006" stroke-width="1" stroke="black"/><line class="median" x1="0" y1="11.218527973999926" x2="145.16129032258064" y2="11.218527973999926" stroke-width="1" stroke="black"/></g><g class="whisker" transform="translate(427.4193548387097,0)"><line class="median" x1="0" y1="361.507664424" x2="145.16129032258064" y2="361.507664424" stroke-width="1" stroke="black"/><line class="median" x1="0" y1="12.611323051999932" x2="145.16129032258064" y2="12.611323051999932" stroke-width="1" stroke="black"/></g><g class="whisker" transform="translate(750.0000000000001,0)"><line class="median" x1="0" y1="270.11924928400003" x2="145.16129032258064" y2="270.11924928400003" stroke-width="1" stroke="black"/><line class="median" x1="0" y1="111.42589165599998" x2="145.16129032258064" y2="111.42589165599998" stroke-width="1" stroke="black"/></g></g></svg>